# xmcd CD database file
#
# Track frame offsets:
#	150
#	10137
#	23200
#	35312
#	51062
#	64787
#	75625
#	88162
#	97825
#	114150
#
# Disc length: 1686 seconds
#
# Revision: 0
# Processed by: cddbd v1.4PL0 Copyright (c) Steve Scherf et al.
# Submitted via: CDex 1.40Beta9
#
DISCID=6a06940a
DTITLE=Various Artist - Country Classics - disc 2
DYEAR=2001
DGENRE=Country
TTITLE0=Charley Pride/Is Anybody Goin' To San Antone
TTITLE1=Waylon Jennings/Are You sure Hank Done It This Way
TTITLE2=Dolly Parton/Jolene
TTITLE3=Ronnie Milsap/Only One Love In My Life
TTITLE4=Jim Ed Brown and Helen Cornelius/I Don't Want To Have To Marry You
TTITLE5=Charlie Rich/There Won't Be Anymore
TTITLE6=Gary Stewart/She's Actin' Single (I'm Drinkin' Doubles)
TTITLE7=Porter Wagoner and Dolly Parton/If Teardrops Were Pennies
TTITLE8=Dickey Lee/Rocky
TTITLE9=Dave and Sugar/The Door Is Always Open
EXTD=YEAR: 2001 ID3G: 2
EXTT0=
EXTT1=
EXTT2=
EXTT3=
EXTT4=
EXTT5=
EXTT6=
EXTT7=
EXTT8=
EXTT9=
PLAYORDER=
